<svg xmlns="http://www.w3.org/2000/svg" viewBox="0 0 64 64" fill="none">
  <defs>
    <linearGradient id="cowGrad" x1="0%" y1="0%" x2="100%" y2="100%">
      <stop offset="0%" style="stop-color:#FFFFFF;stop-opacity:1" />
      <stop offset="100%" style="stop-color:#E5E5E5;stop-opacity:1" />
    </linearGradient>
  </defs>
  <ellipse cx="32" cy="36" rx="20" ry="14" fill="url(#cowGrad)" stroke="#374151" stroke-width="2"/>
  <ellipse cx="32" cy="20" rx="14" ry="12" fill="url(#cowGrad)" stroke="#374151" stroke-width="2"/>
  <ellipse cx="24" cy="16" rx="3" ry="6" fill="#F3F4F6" stroke="#374151" stroke-width="1.5"/>
  <ellipse cx="40" cy="16" rx="3" ry="6" fill="#F3F4F6" stroke="#374151" stroke-width="1.5"/>
  <circle cx="28" cy="22" r="2" fill="#1F2937"/>
  <circle cx="36" cy="22" r="2" fill="#1F2937"/>
  <ellipse cx="32" cy="26" rx="4" ry="3" fill="#FCA5A5" opacity="0.6"/>
  <circle cx="30" cy="28" r="1.5" fill="#1F2937"/>
  <circle cx="34" cy="28" r="1.5" fill="#1F2937"/>
  <rect x="18" y="46" width="4" height="10" rx="2" fill="#F3F4F6" stroke="#374151" stroke-width="1.5"/>
  <rect x="28" y="46" width="4" height="10" rx="2" fill="#F3F4F6" stroke="#374151" stroke-width="1.5"/>
  <rect x="32" y="46" width="4" height="10" rx="2" fill="#F3F4F6" stroke="#374151" stroke-width="1.5"/>
  <rect x="42" y="46" width="4" height="10" rx="2" fill="#F3F4F6" stroke="#374151" stroke-width="1.5"/>
  <ellipse cx="16" cy="38" rx="2" ry="4" fill="#D1D5DB"/>
  <path d="M 16 38 L 14 42" stroke="#374151" stroke-width="1.5"/>
</svg>
